<svg width="199" height="188" viewBox="0 0 199 188" fill="none" xmlns="http://www.w3.org/2000/svg">
<path d="M177.846 16.5068C177.846 16.5068 187.676 18.6702 199 28.557L185.403 53.328C181.543 49.6053 176.722 47.0286 171.481 45.8859L177.846 16.5068Z" fill="#FD425F"/>
<path d="M180.293 32.2132C181.484 27.7782 182.458 23.2783 183.606 18.8433C181.748 17.9205 179.822 17.1394 177.846 16.5068L171.481 45.8859C175.032 42.7922 175.984 43.9605 176.612 43.7225C177.673 39.8284 179.362 36.0207 180.293 32.2132Z" fill="#E42244"/>
<path d="M124.692 2.98559C124.692 2.98559 163.102 -0.843632 184.45 10.1897L176.612 43.636C176.612 43.636 157.775 33.5329 126.51 37.8597L124.692 2.98559Z" fill="#FD425F"/>
<path d="M127.723 0H124.648V131.535H127.723V0Z" fill="#110239"/>
<path d="M130.083 127.576H122.31V133.742H130.083V127.576Z" fill="#110239"/>
<path d="M133.114 132.4H119.279V135.494H133.114V132.4Z" fill="#110239"/>
<path d="M69.6748 58.1955V80.1324H75.1527V64.6857C75.1527 63.9341 75.4515 63.2132 75.9834 62.6817C76.5153 62.1502 77.2368 61.8516 77.989 61.8516H101.524C101.896 61.8516 102.264 61.9251 102.606 62.0678C102.949 62.2105 103.261 62.4195 103.522 62.683C103.784 62.9465 103.991 63.2591 104.131 63.6028C104.271 63.9465 104.342 64.3146 104.339 64.6857V80.1324H109.817V58.1955C109.817 57.8262 109.744 57.4604 109.603 57.1192C109.461 56.778 109.254 56.4679 108.992 56.2068C108.731 55.9456 108.421 55.7385 108.079 55.5971C107.738 55.4558 107.372 55.3831 107.002 55.3831H72.5112C71.7626 55.383 71.0445 55.6786 70.5132 56.2055C69.9819 56.7323 69.6805 57.4476 69.6748 58.1955Z" fill="#D0D1DE"/>
<path d="M169.9 72.6904H9.61332C4.30403 72.6904 0 76.991 0 82.296V178.394C0 183.699 4.30403 188 9.61332 188H169.9C175.21 188 179.514 183.699 179.514 178.394V82.296C179.514 76.991 175.21 72.6904 169.9 72.6904Z" fill="#110239"/>
<path d="M179.514 104.817V82.3176C179.516 81.0543 179.27 79.803 178.788 78.6351C178.306 77.4672 177.598 76.4057 176.706 75.5114C175.813 74.6172 174.752 73.9077 173.584 73.4237C172.416 72.9396 171.164 72.6904 169.9 72.6904H9.67829C8.41402 72.6904 7.16214 72.9396 5.99438 73.4237C4.82663 73.9077 3.76594 74.6172 2.87298 75.5114C1.98001 76.4057 1.27231 77.4672 0.790474 78.6351C0.308635 79.803 0.0621184 81.0543 0.0649658 82.3176V104.817C0.0649658 108.067 0.705648 111.285 1.95043 114.288C3.19521 117.291 5.01973 120.019 7.31979 122.317C9.61984 124.616 12.3504 126.439 15.3556 127.682C18.3607 128.926 21.5816 129.566 24.8344 129.566H154.744C157.997 129.566 161.218 128.926 164.223 127.682C167.228 126.439 169.959 124.616 172.259 122.317C174.559 120.019 176.383 117.291 177.628 114.288C178.873 111.285 179.514 108.067 179.514 104.817Z" fill="#453964"/>
<path d="M95.4619 124.374H84.0515V137.333H95.4619V124.374Z" fill="#D0D1DE"/>
<path d="M91.5863 130.583H87.9055V133.785H91.5863V130.583Z" fill="#110239"/>
<path d="M42.9568 15.5981H36.9377C36.9377 15.5981 36.0716 23.7758 34.5127 24.7493C34.5127 24.7493 32.5857 34.4198 39.9472 34.4198C48.8677 34.4198 45.3818 24.7493 45.3818 24.7493C43.8012 23.7758 42.9568 15.5981 42.9568 15.5981Z" fill="#F88667"/>
<path d="M42.9568 15.5981H36.9377C36.9377 15.5981 36.0716 23.7758 34.5127 24.7493C34.5127 24.7493 32.5857 34.4198 39.9472 34.4198C48.8677 34.4198 45.3818 24.7493 45.3818 24.7493C43.8012 23.7758 42.9568 15.5981 42.9568 15.5981Z" fill="#E45940"/>
<path d="M47.7417 17.1989C46.8973 16.247 45.9013 17.6965 45.9013 17.6965C45.9013 17.6965 47.287 12.288 45.9013 9.9299C44.5156 7.57178 40.077 8.80495 40.077 8.80495C40.077 8.80495 35.6168 7.55015 34.2528 9.9299C32.8887 12.3096 34.2528 17.6965 34.2528 17.6965C34.2528 17.6965 33.2568 16.247 32.4124 17.1989C31.5679 18.1508 33.7981 20.5739 34.296 20.8551C34.296 20.8551 37.5005 26.8477 40.077 26.8477C42.6536 26.8477 45.858 20.8551 45.858 20.8551C46.356 20.5739 48.5644 18.1508 47.7417 17.1989Z" fill="#F88667"/>
<path d="M38.9513 10.9469C38.9513 10.9469 35.5737 11.531 35.2056 13.3482C35.1006 14.2527 35.1593 15.1687 35.3788 16.0525C35.5562 17.0312 35.6576 18.0221 35.682 19.0164C35.6144 19.049 35.5404 19.0659 35.4654 19.0659C35.3905 19.0659 35.3164 19.049 35.2489 19.0164C34.804 18.6103 34.4178 18.1443 34.1014 17.6318C33.4518 16.7015 32.5425 16.853 32.2826 17.4587C32.2826 17.4587 31.5248 8.56713 35.2489 8.26426C38.973 7.96138 38.9513 10.9469 38.9513 10.9469Z" fill="#110239"/>
<path d="M41.1597 10.9469C41.1597 10.9469 44.5156 11.531 44.9054 13.3482C45.0139 14.2538 44.9477 15.1718 44.7105 16.0525C44.5279 17.03 44.4337 18.022 44.429 19.0164C44.497 19.0475 44.5708 19.0636 44.6455 19.0636C44.7203 19.0636 44.7941 19.0475 44.8621 19.0164C45.307 18.6103 45.6932 18.1443 46.0096 17.6318C46.6375 16.7015 47.5685 16.853 47.8283 17.4587C47.8283 17.4587 48.5862 8.56713 44.8621 8.26426C41.138 7.96138 41.1597 10.9469 41.1597 10.9469Z" fill="#110239"/>
<path d="M46.7241 9.45416C46.5723 8.80523 46.2725 8.2001 45.8481 7.68599C45.4237 7.17188 44.8862 6.76267 44.2775 6.49027C42.0057 5.57252 39.4947 5.42806 37.1325 6.07922C36.3139 6.1883 35.5391 6.51301 34.8876 7.02003C34.236 7.52704 33.7312 8.19812 33.4248 8.96441C33.1185 9.73069 33.0218 10.5646 33.1444 11.3806C33.2671 12.1966 33.6048 12.9653 34.1229 13.6079C34.692 14.1672 35.3699 14.6037 36.1148 14.8903C36.8598 15.1769 37.6557 15.3073 38.4533 15.2737C44.992 15.2737 47.7201 11.4229 46.7241 9.45416Z" fill="#110239"/>
<path d="M45.36 24.7493C45.0353 32.9702 39.9255 32.1265 39.9255 32.1265C39.9255 32.1265 34.7941 32.9702 34.491 24.7493C30.2529 25.9039 26.168 27.5598 22.3228 29.6818C23.4064 34.6605 24.0082 39.7318 24.1198 44.8257L28.7966 62.9118L39.9255 63.4526L51.0328 62.9118L55.7096 44.8257C55.8219 39.7307 56.431 34.6587 57.5283 29.6818C53.6831 27.5598 49.598 25.9039 45.36 24.7493Z" fill="#00BAD1"/>
<g style="mix-blend-mode:multiply" opacity="0.32">
<path d="M54.9085 34.4197C49.8204 37.124 47.3521 43.3546 42.4156 46.405C37.479 49.4554 33.7549 43.1815 31.2217 39.9148C29.1463 37.0372 26.3133 34.7906 23.0374 33.4246C23.6903 37.2061 24.0523 41.0322 24.1199 44.869L28.7967 62.9551L39.9257 63.4959L51.0329 62.9551L55.7097 44.869C55.7967 41.0916 56.1512 37.325 56.7706 33.5976C56.1427 33.8356 55.4931 34.1818 54.9085 34.4197Z" fill="#00547A"/>
</g>
<path d="M60.538 70.2457C60.538 63.8853 52.6568 59.71 52.6568 59.71H26.1769C26.1769 59.71 18.2957 63.8853 18.2957 70.2457C18.3788 71.8904 18.5961 73.5256 18.9452 75.135H27.8007C27.4327 75.7841 27.1079 76.3898 26.8481 76.8874C26.7772 77.0432 26.6977 77.1948 26.6099 77.3417H33.1054C33.5818 77.3417 33.4302 77.5364 33.2786 76.8225C33.127 76.1086 32.4558 75.2432 33.0837 74.1832C34.1316 73.2497 35.4702 72.707 36.8728 72.6471H41.6362C42.1648 72.6665 42.6887 72.7538 43.195 72.9067C43.628 72.9067 44.9705 72.9067 45.5334 73.6207C45.8264 74.0798 45.9839 74.6122 45.9881 75.1567C45.9706 75.8833 45.8909 76.6071 45.75 77.3201H53.761C53.1548 76.5196 52.6568 75.8057 52.2238 75.1567H60.0616C60.3454 73.5342 60.5047 71.8925 60.538 70.2457Z" fill="#FD425F"/>
<path d="M60.538 70.2457C60.538 63.8853 52.6568 59.71 52.6568 59.71H26.1769C26.1769 59.71 18.2957 63.8853 18.2957 70.2457C18.3788 71.8904 18.5961 73.5256 18.9452 75.135H27.8007C27.4327 75.7841 27.1079 76.3898 26.8481 76.8874C26.7772 77.0432 26.6977 77.1948 26.6099 77.3417H33.1054C33.5818 77.3417 33.4302 77.5364 33.2786 76.8225C33.127 76.1086 32.4558 75.2432 33.0837 74.1832C34.1316 73.2497 35.4702 72.707 36.8728 72.6471H41.6362C42.1648 72.6665 42.6887 72.7538 43.195 72.9067C43.628 72.9067 44.9705 72.9067 45.5334 73.6207C45.8264 74.0798 45.9839 74.6122 45.9881 75.1567C45.9706 75.8833 45.8909 76.6071 45.75 77.3201H53.761C53.1548 76.5196 52.6568 75.8057 52.2238 75.1567H60.0616C60.3454 73.5342 60.5047 71.8925 60.538 70.2457Z" fill="#BD1337"/>
<path d="M22.3229 29.6819C22.3229 29.6819 12.2116 51.5107 12.9478 54.4313C13.121 55.1452 25.4407 62.5657 31.2217 61.5057L33.5817 61.073C33.5817 61.073 24.986 29.5305 22.3229 29.6819Z" fill="#00BAD1"/>
<path d="M57.5067 29.6819C57.5067 29.6819 67.618 51.5107 66.8818 54.4313C66.7086 55.1452 54.3888 62.5657 48.6078 61.5057L46.2478 61.073C46.2478 61.073 54.8435 29.5305 57.5067 29.6819Z" fill="#00BAD1"/>
<g style="mix-blend-mode:multiply" opacity="0.32">
<path d="M26.2635 37.3188C26.2449 38.3896 26.1143 39.4555 25.8737 40.4991C24.986 44.4581 23.5787 48.5686 25.051 52.5925C26.3387 55.7059 27.8661 58.7149 29.6195 61.5923C30.1515 61.6583 30.6897 61.6583 31.2217 61.5923L33.5818 61.1596C33.5818 61.1596 29.6412 46.6215 26.2635 37.3188Z" fill="#00547A"/>
</g>
<g style="mix-blend-mode:multiply" opacity="0.32">
<path d="M51.9856 61.3974C52.7561 59.5558 53.1322 57.5734 53.0898 55.5778C52.9599 51.5539 52.9382 47.5083 53.0898 43.4844C53.0898 41.732 53.0898 40.0446 53.263 38.4004C49.9936 47.6814 46.3345 61.0729 46.3345 61.0729L48.6945 61.5056C49.79 61.651 50.902 61.6145 51.9856 61.3974Z" fill="#00547A"/>
</g>
<path d="M29.8359 108.019C27.2841 110.976 24.8918 114.067 22.6692 117.278C21.9114 118.901 23.7518 120.935 26.2417 120.112C28.7316 119.29 30.204 117.581 30.2473 116.5C30.2906 115.418 31.6113 114.834 32.1959 114.747C32.7805 114.661 36.1148 110.875 35.7901 109.836C35.3022 108.964 34.6116 108.222 33.7765 107.673L29.8359 108.019Z" fill="black"/>
<path d="M49.0193 108.019C51.563 110.977 53.9481 114.068 56.1643 117.278C56.9221 118.901 55.0818 120.935 52.5918 120.112C50.1019 119.29 48.6296 117.581 48.5863 116.5C48.543 115.418 47.2222 114.834 46.6376 114.747C46.053 114.661 42.7187 110.875 43.0435 109.836C43.5314 108.964 44.222 108.222 45.057 107.673L49.0193 108.019Z" fill="black"/>
<path d="M32.131 69.8997C31.3732 68.0824 31.2217 64.2532 26.0686 64.2532C16.1738 64.2532 18.4905 72.1713 18.6421 73.3611C20.136 85.1733 27.3027 108.754 27.3027 108.754H37.2408C37.2408 108.754 33.625 79.873 33.0621 75.4164C32.9308 73.5517 32.6191 71.7042 32.131 69.8997Z" fill="#FD425F"/>
<path d="M46.789 69.8997C47.5468 68.0824 47.6984 64.2532 52.8515 64.2532C62.7679 64.2532 60.4295 72.1713 60.278 73.3611C58.784 85.1733 51.6173 108.754 51.6173 108.754H41.7009C41.7009 108.754 45.2951 79.873 45.858 75.4164C46.0106 73.5543 46.3221 71.7087 46.789 69.8997Z" fill="#FD425F"/>
<path d="M54.4971 61.3325H25.354V63.0632H54.4971V61.3325Z" fill="#110239"/>
<path d="M58.7842 41.148H21.0671C20.8018 41.1462 20.5396 41.2054 20.3007 41.3209C20.0619 41.4364 19.8528 41.6052 19.6896 41.8142C19.5264 42.0233 19.4135 42.267 19.3595 42.5266C19.3055 42.7862 19.3119 43.0547 19.3782 43.3114C19.7247 45.583 24.4881 61.4624 25.4407 61.4624H54.4106C55.255 61.4624 60.1266 45.583 60.473 43.3114C60.5394 43.0547 60.5458 42.7862 60.4918 42.5266C60.4379 42.267 60.3249 42.0233 60.1617 41.8142C59.9985 41.6052 59.7894 41.4364 59.5506 41.3209C59.3118 41.2054 59.0495 41.1462 58.7842 41.148Z" fill="#110239"/>
<path d="M41.4846 52.1165C41.4846 52.4245 41.3931 52.7257 41.2218 52.9819C41.0505 53.238 40.807 53.4377 40.5222 53.5556C40.2373 53.6735 39.9239 53.7043 39.6215 53.6442C39.3191 53.5841 39.0413 53.4357 38.8233 53.2179C38.6053 53.0001 38.4568 52.7225 38.3966 52.4204C38.3365 52.1182 38.3674 51.805 38.4854 51.5204C38.6034 51.2358 38.8032 50.9925 39.0595 50.8213C39.3159 50.6502 39.6173 50.5588 39.9256 50.5588C40.3373 50.5644 40.7306 50.7303 41.0218 51.0212C41.3129 51.3121 41.479 51.7051 41.4846 52.1165Z" fill="#D0D1DE"/>
<path d="M78.8118 159.27L80.5656 164.657H86.2383L81.6482 167.989L83.402 173.354L78.8118 170.044L74.2433 173.354L75.9755 167.989L71.407 164.657H77.0581L78.8118 159.27Z" fill="#D0D1DE"/>
<path d="M99.0345 159.27L100.788 164.657H106.461L101.871 167.989L103.625 173.354L99.0345 170.044L94.466 173.354L96.2198 167.989L91.6296 164.657H97.3024L99.0345 159.27Z" fill="#D0D1DE"/>
<path d="M119.279 159.27L121.033 164.657H126.684L122.094 167.989L123.847 173.354L119.279 170.044L114.689 173.354L116.442 167.989L111.852 164.657H117.525L119.279 159.27Z" fill="#D0D1DE"/>
<path d="M139.501 159.27L141.255 164.657H146.906L142.338 167.989L144.091 173.354L139.501 170.044L134.911 173.354L136.665 167.989L132.096 164.657H137.748L139.501 159.27Z" fill="#D0D1DE"/>
<path d="M159.724 159.27L161.478 164.657H167.129L162.56 167.989L164.314 173.354L159.724 170.044L155.155 173.354L156.888 167.989L152.319 164.657H157.97L159.724 159.27Z" fill="#D0D1DE"/>
</svg>
