<svg width="236" height="63" viewBox="0 0 236 63" fill="none" xmlns="http://www.w3.org/2000/svg">
<mask id="mask0_46_3829" style="mask-type:alpha" maskUnits="userSpaceOnUse" x="64" y="17" width="172" height="29">
<rect x="64" y="17" width="172" height="29" fill="#C4C4C4"/>
</mask>
<g mask="url(#mask0_46_3829)">
<path d="M83.224 40.886L83.206 44H67.186V18.152H83.206V21.266H71.038V29.456H80.83V32.462H71.038V40.886H83.224ZM102.759 40.778V44H87.9633V18.152H91.7973V40.778H102.759ZM122.529 40.886L122.511 44H106.491V18.152H122.511V21.266H110.343V29.456H120.135V32.462H110.343V40.886H122.529ZM148.58 18.152L138.068 44H134.63L124.118 18.152H127.178C127.514 18.152 127.784 18.236 127.988 18.404C128.204 18.572 128.366 18.788 128.474 19.052L135.458 36.62C135.626 37.052 135.788 37.526 135.944 38.042C136.112 38.558 136.262 39.098 136.394 39.662C136.514 39.098 136.646 38.558 136.79 38.042C136.934 37.526 137.09 37.052 137.258 36.62L144.224 19.052C144.308 18.812 144.458 18.602 144.674 18.422C144.902 18.242 145.178 18.152 145.502 18.152H148.58ZM163.572 34.37L159.738 24.344C159.462 23.66 159.186 22.796 158.91 21.752C158.778 22.268 158.64 22.748 158.496 23.192C158.364 23.636 158.232 24.032 158.1 24.38L154.284 34.37H163.572ZM171.15 44H168.198C167.862 44 167.586 43.916 167.37 43.748C167.154 43.58 166.998 43.364 166.902 43.1L164.616 37.106H153.222L150.936 43.1C150.852 43.328 150.696 43.538 150.468 43.73C150.24 43.91 149.964 44 149.64 44H146.688L156.984 18.152H160.854L171.15 44ZM189.468 21.356H181.26V44H177.444V21.356H169.2V18.152H189.468V21.356ZM204.389 34.37L200.555 24.344C200.279 23.66 200.003 22.796 199.727 21.752C199.595 22.268 199.457 22.748 199.313 23.192C199.181 23.636 199.049 24.032 198.917 24.38L195.101 34.37H204.389ZM211.967 44H209.015C208.679 44 208.403 43.916 208.187 43.748C207.971 43.58 207.815 43.364 207.719 43.1L205.433 37.106H194.039L191.753 43.1C191.669 43.328 191.513 43.538 191.285 43.73C191.057 43.91 190.781 44 190.457 44H187.505L197.801 18.152H201.671L211.967 44ZM223.024 31.454C223.996 31.454 224.848 31.328 225.58 31.076C226.324 30.824 226.942 30.47 227.434 30.014C227.938 29.546 228.316 28.994 228.568 28.358C228.82 27.71 228.946 26.996 228.946 26.216C228.946 24.644 228.454 23.408 227.47 22.508C226.498 21.608 225.016 21.158 223.024 21.158H219.028V31.454H223.024ZM223.024 18.152C224.68 18.152 226.12 18.344 227.344 18.728C228.568 19.112 229.582 19.658 230.386 20.366C231.19 21.062 231.784 21.908 232.168 22.904C232.564 23.9 232.762 25.004 232.762 26.216C232.762 27.428 232.552 28.544 232.132 29.564C231.712 30.572 231.094 31.442 230.278 32.174C229.462 32.906 228.442 33.476 227.218 33.884C226.006 34.28 224.608 34.478 223.024 34.478H219.028V44H215.194V18.152H223.024Z" fill="#01C7E2"/>
<path d="M83.224 40.886L84.724 40.8947L84.7327 39.386H83.224V40.886ZM83.206 44V45.5H84.6974L84.706 44.0087L83.206 44ZM67.186 44H65.686V45.5H67.186V44ZM67.186 18.152V16.652H65.686V18.152H67.186ZM83.206 18.152H84.706V16.652H83.206V18.152ZM83.206 21.266V22.766H84.706V21.266H83.206ZM71.038 21.266V19.766H69.538V21.266H71.038ZM71.038 29.456H69.538V30.956H71.038V29.456ZM80.83 29.456H82.33V27.956H80.83V29.456ZM80.83 32.462V33.962H82.33V32.462H80.83ZM71.038 32.462V30.962H69.538V32.462H71.038ZM71.038 40.886H69.538V42.386H71.038V40.886ZM81.724 40.8773L81.706 43.9913L84.706 44.0087L84.724 40.8947L81.724 40.8773ZM83.206 42.5H67.186V45.5H83.206V42.5ZM68.686 44V18.152H65.686V44H68.686ZM67.186 19.652H83.206V16.652H67.186V19.652ZM81.706 18.152V21.266H84.706V18.152H81.706ZM83.206 19.766H71.038V22.766H83.206V19.766ZM69.538 21.266V29.456H72.538V21.266H69.538ZM71.038 30.956H80.83V27.956H71.038V30.956ZM79.33 29.456V32.462H82.33V29.456H79.33ZM80.83 30.962H71.038V33.962H80.83V30.962ZM69.538 32.462V40.886H72.538V32.462H69.538ZM71.038 42.386H83.224V39.386H71.038V42.386ZM102.759 40.778H104.259V39.278H102.759V40.778ZM102.759 44V45.5H104.259V44H102.759ZM87.9633 44H86.4633V45.5H87.9633V44ZM87.9633 18.152V16.652H86.4633V18.152H87.9633ZM91.7973 18.152H93.2973V16.652H91.7973V18.152ZM91.7973 40.778H90.2973V42.278H91.7973V40.778ZM101.259 40.778V44H104.259V40.778H101.259ZM102.759 42.5H87.9633V45.5H102.759V42.5ZM89.4633 44V18.152H86.4633V44H89.4633ZM87.9633 19.652H91.7973V16.652H87.9633V19.652ZM90.2973 18.152V40.778H93.2973V18.152H90.2973ZM91.7973 42.278H102.759V39.278H91.7973V42.278ZM122.529 40.886L124.029 40.8947L124.037 39.386H122.529V40.886ZM122.511 44V45.5H124.002L124.011 44.0087L122.511 44ZM106.491 44H104.991V45.5H106.491V44ZM106.491 18.152V16.652H104.991V18.152H106.491ZM122.511 18.152H124.011V16.652H122.511V18.152ZM122.511 21.266V22.766H124.011V21.266H122.511ZM110.343 21.266V19.766H108.843V21.266H110.343ZM110.343 29.456H108.843V30.956H110.343V29.456ZM120.135 29.456H121.635V27.956H120.135V29.456ZM120.135 32.462V33.962H121.635V32.462H120.135ZM110.343 32.462V30.962H108.843V32.462H110.343ZM110.343 40.886H108.843V42.386H110.343V40.886ZM121.029 40.8773L121.011 43.9913L124.011 44.0087L124.029 40.8947L121.029 40.8773ZM122.511 42.5H106.491V45.5H122.511V42.5ZM107.991 44V18.152H104.991V44H107.991ZM106.491 19.652H122.511V16.652H106.491V19.652ZM121.011 18.152V21.266H124.011V18.152H121.011ZM122.511 19.766H110.343V22.766H122.511V19.766ZM108.843 21.266V29.456H111.843V21.266H108.843ZM110.343 30.956H120.135V27.956H110.343V30.956ZM118.635 29.456V32.462H121.635V29.456H118.635ZM120.135 30.962H110.343V33.962H120.135V30.962ZM108.843 32.462V40.886H111.843V32.462H108.843ZM110.343 42.386H122.529V39.386H110.343V42.386ZM148.58 18.152L149.97 18.7171L150.809 16.652H148.58V18.152ZM138.068 44V45.5H139.077L139.458 44.5651L138.068 44ZM134.63 44L133.241 44.5651L133.621 45.5H134.63V44ZM124.118 18.152V16.652H121.889L122.729 18.7171L124.118 18.152ZM127.988 18.404L127.034 19.5619L127.051 19.5752L127.067 19.588L127.988 18.404ZM128.474 19.052L129.868 18.4979L129.865 18.4909L129.862 18.4841L128.474 19.052ZM135.458 36.62L136.856 36.0763L136.852 36.0659L135.458 36.62ZM135.944 38.042L134.508 38.4761L134.513 38.4913L134.518 38.5064L135.944 38.042ZM136.394 39.662L134.934 40.0038L137.861 39.9742L136.394 39.662ZM136.79 38.042L135.345 37.6388L136.79 38.042ZM137.258 36.62L135.864 36.0671L135.86 36.0763L137.258 36.62ZM144.224 19.052L145.618 19.6049L145.63 19.5764L145.64 19.5475L144.224 19.052ZM144.674 18.422L143.745 17.2447L143.729 17.257L143.714 17.2697L144.674 18.422ZM147.191 17.5869L136.679 43.4349L139.458 44.5651L149.97 18.7171L147.191 17.5869ZM138.068 42.5H134.63V45.5H138.068V42.5ZM136.02 43.4349L125.508 17.5869L122.729 18.7171L133.241 44.5651L136.02 43.4349ZM124.118 19.652H127.178V16.652H124.118V19.652ZM127.178 19.652C127.223 19.652 127.22 19.6577 127.187 19.6473C127.15 19.6357 127.093 19.6098 127.034 19.5619L128.942 17.2461C128.403 16.8025 127.766 16.652 127.178 16.652V19.652ZM127.067 19.588C127.07 19.5901 127.071 19.5911 127.071 19.5913C127.071 19.5914 127.071 19.5915 127.072 19.592C127.072 19.5922 127.077 19.5995 127.086 19.6199L129.862 18.4841C129.659 17.9881 129.341 17.5559 128.909 17.22L127.067 19.588ZM127.08 19.6061L134.064 37.1741L136.852 36.0659L129.868 18.4979L127.08 19.6061ZM134.06 37.1637C134.212 37.5544 134.362 37.9913 134.508 38.4761L137.38 37.6079C137.214 37.0607 137.04 36.5496 136.856 36.0763L134.06 37.1637ZM134.518 38.5064C134.672 38.9794 134.811 39.4784 134.934 40.0038L137.855 39.3202C137.714 38.7176 137.552 38.1366 137.37 37.5776L134.518 38.5064ZM137.861 39.9742C137.975 39.4384 138.1 38.9289 138.235 38.4452L135.345 37.6388C135.192 38.1871 135.053 38.7576 134.927 39.3498L137.861 39.9742ZM138.235 38.4452C138.368 37.9696 138.508 37.5432 138.656 37.1637L135.86 36.0763C135.672 36.5608 135.501 37.0824 135.345 37.6388L138.235 38.4452ZM138.652 37.1729L145.618 19.6049L142.83 18.4991L135.864 36.0671L138.652 37.1729ZM145.64 19.5475C145.637 19.5548 145.634 19.5623 145.63 19.5697C145.626 19.5769 145.623 19.5826 145.62 19.5864C145.614 19.5944 145.616 19.5896 145.634 19.5743L143.714 17.2697C143.312 17.6045 142.991 18.0339 142.808 18.5565L145.64 19.5475ZM145.603 19.5993C145.579 19.6189 145.547 19.6357 145.517 19.6456C145.489 19.6549 145.48 19.652 145.502 19.652V16.652C144.882 16.652 144.268 16.8315 143.745 17.2447L145.603 19.5993ZM145.502 19.652H148.58V16.652H145.502V19.652ZM163.572 34.37V35.87H165.752L164.973 33.8342L163.572 34.37ZM159.738 24.344L161.139 23.8082L161.134 23.7954L161.129 23.7827L159.738 24.344ZM158.91 21.752L160.361 21.3686L158.886 15.7929L157.457 21.3802L158.91 21.752ZM158.496 23.192L157.07 22.7292L157.064 22.7468L157.059 22.7645L158.496 23.192ZM158.1 24.38L159.502 24.9153L159.503 24.912L158.1 24.38ZM154.284 34.37L152.883 33.8347L152.106 35.87H154.284V34.37ZM171.15 44V45.5H173.362L172.544 43.4449L171.15 44ZM166.902 43.1L168.312 42.5874L168.308 42.5764L168.304 42.5655L166.902 43.1ZM164.616 37.106L166.018 36.5715L165.65 35.606H164.616V37.106ZM153.222 37.106V35.606H152.189L151.821 36.5715L153.222 37.106ZM150.936 43.1L149.535 42.5655L149.532 42.5734L149.529 42.5814L150.936 43.1ZM150.468 43.73L151.398 44.9073L151.416 44.8926L151.435 44.8774L150.468 43.73ZM146.688 44L145.295 43.4449L144.476 45.5H146.688V44ZM156.984 18.152V16.652H155.967L155.591 17.5969L156.984 18.152ZM160.854 18.152L162.248 17.5969L161.871 16.652H160.854V18.152ZM164.973 33.8342L161.139 23.8082L158.337 24.8798L162.171 34.9058L164.973 33.8342ZM161.129 23.7827C160.885 23.1766 160.627 22.3771 160.361 21.3686L157.46 22.1354C157.746 23.2149 158.04 24.1434 158.347 24.9053L161.129 23.7827ZM157.457 21.3802C157.332 21.8698 157.203 22.3191 157.07 22.7292L159.923 23.6548C160.078 23.1769 160.225 22.6662 160.364 22.1237L157.457 21.3802ZM157.059 22.7645C156.935 23.1814 156.814 23.5415 156.698 23.848L159.503 24.912C159.651 24.5225 159.794 24.0906 159.934 23.6195L157.059 22.7645ZM156.699 23.8447L152.883 33.8347L155.686 34.9053L159.502 24.9153L156.699 23.8447ZM154.284 35.87H163.572V32.87H154.284V35.87ZM171.15 42.5H168.198V45.5H171.15V42.5ZM168.198 42.5C168.155 42.5 168.151 42.4945 168.176 42.502C168.204 42.5104 168.247 42.5294 168.291 42.564L166.449 44.932C166.984 45.348 167.607 45.5 168.198 45.5V42.5ZM168.291 42.564C168.291 42.5639 168.292 42.5644 168.293 42.5653C168.294 42.5663 168.295 42.5676 168.297 42.5693C168.3 42.5729 168.304 42.5772 168.307 42.5818C168.311 42.5863 168.313 42.5899 168.314 42.5917C168.315 42.5935 168.314 42.5924 168.312 42.5874L165.493 43.6126C165.682 44.1345 166.004 44.5859 166.449 44.932L168.291 42.564ZM168.304 42.5655L166.018 36.5715L163.215 37.6405L165.501 43.6345L168.304 42.5655ZM164.616 35.606H153.222V38.606H164.616V35.606ZM151.821 36.5715L149.535 42.5655L152.338 43.6345L154.624 37.6405L151.821 36.5715ZM149.529 42.5814C149.534 42.5669 149.54 42.5553 149.544 42.5468C149.549 42.5384 149.552 42.5342 149.552 42.534C149.552 42.5339 149.539 42.5513 149.502 42.5826L151.435 44.8774C151.817 44.5554 152.152 44.1406 152.344 43.6186L149.529 42.5814ZM149.539 42.5527C149.564 42.5331 149.595 42.5163 149.625 42.5064C149.654 42.4971 149.663 42.5 149.64 42.5V45.5C150.26 45.5 150.874 45.3205 151.398 44.9073L149.539 42.5527ZM149.64 42.5H146.688V45.5H149.64V42.5ZM148.082 44.5551L158.378 18.7071L155.591 17.5969L145.295 43.4449L148.082 44.5551ZM156.984 19.652H160.854V16.652H156.984V19.652ZM159.461 18.7071L169.757 44.5551L172.544 43.4449L162.248 17.5969L159.461 18.7071ZM189.468 21.356V22.856H190.968V21.356H189.468ZM181.26 21.356V19.856H179.76V21.356H181.26ZM181.26 44V45.5H182.76V44H181.26ZM177.444 44H175.944V45.5H177.444V44ZM177.444 21.356H178.944V19.856H177.444V21.356ZM169.2 21.356H167.7V22.856H169.2V21.356ZM169.2 18.152V16.652H167.7V18.152H169.2ZM189.468 18.152H190.968V16.652H189.468V18.152ZM189.468 19.856H181.26V22.856H189.468V19.856ZM179.76 21.356V44H182.76V21.356H179.76ZM181.26 42.5H177.444V45.5H181.26V42.5ZM178.944 44V21.356H175.944V44H178.944ZM177.444 19.856H169.2V22.856H177.444V19.856ZM170.7 21.356V18.152H167.7V21.356H170.7ZM169.2 19.652H189.468V16.652H169.2V19.652ZM187.968 18.152V21.356H190.968V18.152H187.968ZM204.389 34.37V35.87H206.568L205.79 33.8342L204.389 34.37ZM200.555 24.344L201.956 23.8082L201.951 23.7954L201.946 23.7827L200.555 24.344ZM199.727 21.752L201.177 21.3686L199.703 15.7929L198.274 21.3802L199.727 21.752ZM199.313 23.192L197.886 22.7292L197.88 22.7468L197.875 22.7645L199.313 23.192ZM198.917 24.38L200.318 24.9153L200.319 24.912L198.917 24.38ZM195.101 34.37L193.699 33.8347L192.922 35.87H195.101V34.37ZM211.967 44V45.5H214.179L213.36 43.4449L211.967 44ZM207.719 43.1L209.128 42.5874L209.124 42.5764L209.12 42.5655L207.719 43.1ZM205.433 37.106L206.834 36.5715L206.466 35.606H205.433V37.106ZM194.039 37.106V35.606H193.005L192.637 36.5715L194.039 37.106ZM191.753 43.1L190.351 42.5655L190.348 42.5734L190.345 42.5814L191.753 43.1ZM191.285 43.73L192.214 44.9073L192.233 44.8926L192.251 44.8774L191.285 43.73ZM187.505 44L186.111 43.4449L185.293 45.5H187.505V44ZM197.801 18.152V16.652H196.784L196.407 17.5969L197.801 18.152ZM201.671 18.152L203.064 17.5969L202.688 16.652H201.671V18.152ZM205.79 33.8342L201.956 23.8082L199.154 24.8798L202.988 34.9058L205.79 33.8342ZM201.946 23.7827C201.701 23.1766 201.444 22.3771 201.177 21.3686L198.277 22.1354C198.562 23.2149 198.856 24.1434 199.164 24.9053L201.946 23.7827ZM198.274 21.3802C198.148 21.8698 198.019 22.3191 197.886 22.7292L200.74 23.6548C200.895 23.1769 201.041 22.6662 201.18 22.1237L198.274 21.3802ZM197.875 22.7645C197.751 23.1814 197.631 23.5415 197.514 23.848L200.319 24.912C200.467 24.5225 200.61 24.0906 200.751 23.6195L197.875 22.7645ZM197.516 23.8447L193.699 33.8347L196.502 34.9053L200.318 24.9153L197.516 23.8447ZM195.101 35.87H204.389V32.87H195.101V35.87ZM211.967 42.5H209.015V45.5H211.967V42.5ZM209.015 42.5C208.971 42.5 208.968 42.4945 208.992 42.502C209.02 42.5104 209.063 42.5294 209.108 42.564L207.266 44.932C207.801 45.348 208.423 45.5 209.015 45.5V42.5ZM209.108 42.564C209.108 42.5639 209.108 42.5644 209.109 42.5653C209.11 42.5663 209.112 42.5676 209.113 42.5693C209.117 42.5729 209.12 42.5772 209.124 42.5818C209.127 42.5863 209.129 42.5899 209.13 42.5917C209.131 42.5935 209.13 42.5924 209.128 42.5874L206.309 43.6126C206.499 44.1345 206.821 44.5859 207.266 44.932L209.108 42.564ZM209.12 42.5655L206.834 36.5715L204.031 37.6405L206.317 43.6345L209.12 42.5655ZM205.433 35.606H194.039V38.606H205.433V35.606ZM192.637 36.5715L190.351 42.5655L193.154 43.6345L195.44 37.6405L192.637 36.5715ZM190.345 42.5814C190.351 42.5669 190.356 42.5553 190.361 42.5468C190.365 42.5384 190.369 42.5342 190.369 42.534C190.369 42.5339 190.356 42.5513 190.319 42.5826L192.251 44.8774C192.633 44.5554 192.968 44.1406 193.16 43.6186L190.345 42.5814ZM190.355 42.5527C190.38 42.5331 190.411 42.5163 190.442 42.5064C190.47 42.4971 190.479 42.5 190.457 42.5V45.5C191.077 45.5 191.691 45.3205 192.214 44.9073L190.355 42.5527ZM190.457 42.5H187.505V45.5H190.457V42.5ZM188.898 44.5551L199.194 18.7071L196.407 17.5969L186.111 43.4449L188.898 44.5551ZM197.801 19.652H201.671V16.652H197.801V19.652ZM200.277 18.7071L210.573 44.5551L213.36 43.4449L203.064 17.5969L200.277 18.7071ZM225.58 31.076L225.099 29.6553L225.092 29.6577L225.58 31.076ZM227.434 30.014L228.453 31.1141L228.454 31.1132L227.434 30.014ZM228.568 28.358L229.962 28.9106L229.966 28.9017L228.568 28.358ZM227.47 22.508L226.451 23.6087L226.457 23.6149L227.47 22.508ZM219.028 21.158V19.658H217.528V21.158H219.028ZM219.028 31.454H217.528V32.954H219.028V31.454ZM227.344 18.728L226.895 20.1592L227.344 18.728ZM230.386 20.366L229.394 21.4918L229.404 21.5001L230.386 20.366ZM232.168 22.904L230.768 23.4436L230.771 23.4509L230.774 23.4582L232.168 22.904ZM232.132 29.564L233.516 30.1409L233.519 30.1351L232.132 29.564ZM230.278 32.174L231.279 33.2906V33.2906L230.278 32.174ZM227.218 33.884L227.684 35.3098L227.692 35.307L227.218 33.884ZM219.028 34.478V32.978H217.528V34.478H219.028ZM219.028 44V45.5H220.528V44H219.028ZM215.194 44H213.694V45.5H215.194V44ZM215.194 18.152V16.652H213.694V18.152H215.194ZM223.024 32.954C224.121 32.954 225.145 32.8122 226.068 32.4943L225.092 29.6577C224.551 29.8438 223.87 29.954 223.024 29.954V32.954ZM226.061 32.4967C226.971 32.1884 227.782 31.7362 228.453 31.1141L226.414 28.9139C226.101 29.2038 225.676 29.4596 225.099 29.6553L226.061 32.4967ZM228.454 31.1132C229.121 30.4939 229.628 29.7555 229.962 28.9105L227.173 27.8055C227.004 28.2325 226.754 28.598 226.413 28.9148L228.454 31.1132ZM229.966 28.9017C230.293 28.0605 230.446 27.1594 230.446 26.216H227.446C227.446 26.8326 227.347 27.3595 227.17 27.8143L229.966 28.9017ZM230.446 26.216C230.446 24.3052 229.833 22.6364 228.482 21.4011L226.457 23.6149C227.075 24.1796 227.446 24.9828 227.446 26.216H230.446ZM228.489 21.4074C227.128 20.1474 225.208 19.658 223.024 19.658V22.658C224.824 22.658 225.867 23.0686 226.451 23.6086L228.489 21.4074ZM223.024 19.658H219.028V22.658H223.024V19.658ZM217.528 21.158V31.454H220.528V21.158H217.528ZM219.028 32.954H223.024V29.954H219.028V32.954ZM223.024 19.652C224.569 19.652 225.851 19.8318 226.895 20.1592L227.793 17.2968C226.388 16.8562 224.79 16.652 223.024 16.652V19.652ZM226.895 20.1592C227.958 20.4926 228.776 20.9469 229.394 21.4917L231.377 19.2403C230.388 18.369 229.178 17.7314 227.793 17.2968L226.895 20.1592ZM229.404 21.5001C230.021 22.0345 230.472 22.6761 230.768 23.4436L233.567 22.3644C233.095 21.1399 232.358 20.0895 231.368 19.2319L229.404 21.5001ZM230.774 23.4582C231.091 24.2563 231.262 25.1691 231.262 26.216H234.262C234.262 24.8389 234.036 23.5437 233.562 22.3498L230.774 23.4582ZM231.262 26.216C231.262 27.2515 231.083 28.1712 230.745 28.9929L233.519 30.1351C234.02 28.9168 234.262 27.6045 234.262 26.216H231.262ZM230.747 28.9871C230.413 29.7881 229.927 30.474 229.276 31.0574L231.279 33.2906C232.261 32.41 233.01 31.3559 233.516 30.1409L230.747 28.9871ZM229.276 31.0574C228.638 31.6302 227.807 32.1066 226.743 32.461L227.692 35.307C229.077 34.8454 230.286 34.1818 231.279 33.2906L229.276 31.0574ZM226.752 32.4582C225.722 32.7948 224.486 32.978 223.024 32.978V35.978C224.729 35.978 226.29 35.7652 227.684 35.3098L226.752 32.4582ZM223.024 32.978H219.028V35.978H223.024V32.978ZM217.528 34.478V44H220.528V34.478H217.528ZM219.028 42.5H215.194V45.5H219.028V42.5ZM216.694 44V18.152H213.694V44H216.694ZM215.194 19.652H223.024V16.652H215.194V19.652Z" fill="white"/>
</g>
<path d="M50.2 26.2594L50.0374 26.1089C50.6431 25.4568 51.1912 24.7535 51.6756 24.0069C54.5907 19.4898 55.3315 12.672 50.188 6.49259C47.681 3.99679 44.4496 2.35683 40.955 1.80685H40.8346H37.8232H37.763C34.4926 2.32482 31.7402 4.0654 28.9034 5.58917C28.5963 5.75781 26.6208 6.84192 26.3859 6.98044C26.151 7.11896 25.7836 7.2334 25.5126 7.38397C23.5732 8.52228 21.6098 9.62445 19.6464 10.7266C19.536 10.7794 19.4414 10.8603 19.3721 10.9611C19.3028 11.0619 19.2612 11.1792 19.2514 11.3012C19.2417 11.4231 19.2641 11.5455 19.3165 11.6561C19.3689 11.7666 19.4494 11.8615 19.55 11.9312C21.5978 13.1357 28.2831 16.2736 28.3373 16.2917C28.4673 16.3279 28.6048 16.3279 28.7348 16.2917C31.8666 14.533 34.5046 12.9852 37.2028 11.5638C38.2299 11.0062 39.4197 10.8256 40.566 11.0533C41.7122 11.281 42.7426 11.9027 43.4786 12.8105C44.0819 13.5372 44.4817 14.4108 44.6373 15.3424C44.793 16.2739 44.6989 17.23 44.3647 18.1134C44.0304 18.9967 43.468 19.7756 42.7347 20.3708C42.0014 20.966 41.1234 21.3561 40.1902 21.5014L39.7445 21.5375H37.8413H37.775C34.5107 22.0615 31.7522 23.8021 28.9215 25.3259L26.3979 26.7111C26.1209 26.8677 25.7957 26.9641 25.5307 27.1147C23.0734 28.5601 20.5859 29.9394 18.1045 31.3306H15.1473H15.0209C11.5251 31.8971 8.29773 33.554 5.79996 36.0645C0.650467 42.25 1.39127 49.0678 4.31233 53.6029C8.48613 60.0473 16.4844 62.1433 23.4889 58.4754C28.4035 55.9036 33.1856 53.0549 38.0219 50.3687C40.6908 50.6709 43.3908 50.2121 45.81 49.0451C48.2292 47.8781 50.2689 46.0506 51.6937 43.7737C54.6087 39.2566 55.3495 32.4388 50.2 26.2594ZM18.5984 50.6759C17.5365 51.174 16.3343 51.2871 15.1981 50.9959C14.0618 50.7047 13.0623 50.0273 12.3708 49.0798C11.6471 48.1205 11.2667 46.9458 11.2907 45.7443C11.3148 44.5429 11.7418 43.3843 12.5033 42.4547C13.2407 41.5489 14.271 40.9287 15.4167 40.7011C16.5623 40.4735 17.7515 40.6528 18.7791 41.208C21.4773 42.6354 24.1153 44.1833 27.2472 45.9359C24.0912 47.6645 21.393 49.2665 18.5984 50.6759ZM43.6292 39.2747C42.9369 40.2211 41.9369 40.8974 40.8008 41.1874C39.6646 41.4775 38.4629 41.3634 37.4016 40.8647C36.7993 40.5515 36.1549 40.2263 35.5345 39.889C33.8421 38.9374 32.1437 37.9798 30.4694 36.9981C30.2646 36.8776 30.0116 36.7873 29.7767 36.6789L28.7529 36.1368C31.8847 34.3782 34.5167 32.8303 37.2209 31.4089C38.2477 30.8502 39.4378 30.6689 40.5844 30.8967C41.7309 31.1245 42.7614 31.7468 43.4967 32.6556C44.2577 33.5843 44.6845 34.7418 44.7085 35.9422C44.7326 37.1427 44.3524 38.3163 43.6292 39.2747Z" fill="#587D9E" stroke="white" stroke-width="3" stroke-miterlimit="10"/>
<path d="M50.188 6.48657C47.6802 3.99297 44.4489 2.35516 40.9551 1.80685H40.8346H37.8232H37.763C34.4926 2.32482 31.7402 4.0654 28.9035 5.58917C28.5963 5.75781 26.6208 6.84192 26.3859 6.98044C26.151 7.11896 25.7836 7.2334 25.5126 7.38397C23.5733 8.52228 21.6098 9.62445 19.6464 10.7266C19.536 10.7794 19.4415 10.8603 19.3721 10.9611C19.3028 11.0619 19.2612 11.1792 19.2515 11.3012C19.2417 11.4231 19.2641 11.5455 19.3165 11.6561C19.3689 11.7666 19.4495 11.8615 19.55 11.9312C21.5978 13.1357 28.2831 16.2736 28.3373 16.2917C28.4673 16.3279 28.6048 16.3279 28.7348 16.2917C31.8667 14.533 34.5047 12.9852 37.2029 11.5638C38.2299 11.0062 39.4197 10.8256 40.566 11.0533C41.7122 11.281 42.7427 11.9027 43.4786 12.8105C44.0819 13.5372 44.4817 14.4108 44.6374 15.3424C44.793 16.2739 44.6989 17.23 44.3647 18.1134C44.0305 18.9967 43.468 19.7756 42.7347 20.3708C42.0014 20.966 41.1234 21.3561 40.1902 21.5014C40.0276 21.5014 39.8589 21.5375 39.6963 21.5436C38.9194 21.5797 39.341 22.3868 40.0035 22.7481C41.4249 23.4709 42.7017 24.1273 42.6836 26.151C42.6656 28.1747 41.2863 28.777 39.9011 29.5117C39.2988 29.8249 38.7507 30.1863 38.1786 30.5236L38.0461 30.6019C40.7112 30.8928 43.4043 30.4253 45.8155 29.2533C48.2267 28.0813 50.258 26.2523 51.6757 23.9768C54.5907 19.4838 55.3315 12.6479 50.188 6.48657Z" fill="#01C7E2"/>
<path d="M15.9785 32.6918C16.635 32.3605 17.2433 31.9269 17.8757 31.5414C20.4294 30.0959 23.0011 28.6745 25.5307 27.1869C25.7836 27.0363 26.133 26.94 26.398 26.7834L28.9095 25.3981C31.7402 23.8744 34.4986 22.1338 37.763 21.6098H37.8292H40.8406H40.9611C44.4499 22.1563 47.6782 23.7873 50.188 26.2714C55.3375 32.4508 54.5967 39.2687 51.6757 43.7857C47.5139 50.2422 39.5096 52.3321 32.5232 48.6642C27.5483 46.0624 22.706 43.2015 17.8095 40.4551C17.2072 40.1179 16.6711 39.7565 16.0809 39.4433C14.7017 38.7025 13.3164 38.1484 13.2984 36.1007C13.2803 34.0529 14.5511 33.4205 15.9785 32.6918ZM37.4016 40.8647C38.4629 41.3634 39.6646 41.4775 40.8008 41.1874C41.937 40.8973 42.9369 40.2211 43.6292 39.2747C44.3539 38.3158 44.735 37.1409 44.7109 35.9392C44.6869 34.7374 44.2592 33.5787 43.4967 32.6496C42.7647 31.7368 41.7357 31.1097 40.589 30.8775C39.4422 30.6453 38.2504 30.8227 37.2209 31.3788C34.5167 32.8002 31.8847 34.33 28.7529 36.1368C31.9209 37.8533 34.607 39.4614 37.4016 40.8647Z" fill="#110239"/>
<path d="M40.0215 42.5029C39.365 42.1716 38.7567 41.738 38.1243 41.3525C35.5707 39.9071 32.9989 38.4857 30.4694 36.998C30.2164 36.8475 29.8671 36.7511 29.6021 36.5945C29.3371 36.4379 27.7049 35.5947 27.9639 35.6489C27.6671 35.5221 27.3794 35.3752 27.1026 35.2093C24.2719 33.6795 21.5134 31.9389 18.2491 31.4209H18.1828H15.1714H15.045C11.5515 31.9576 8.31635 33.5826 5.79996 36.0645C0.650467 42.2499 1.39127 49.0677 4.31233 53.6029C8.48613 60.0473 16.4844 62.1432 23.4889 58.4753C28.4638 55.8675 33.3061 53.0127 38.2026 50.2663C38.8049 49.923 39.3409 49.5616 39.9312 49.2484C41.3104 48.5136 42.6956 47.9595 42.7137 45.9058C42.7318 43.852 41.4489 43.2256 40.0215 42.5029ZM18.5984 50.6758C17.5365 51.1739 16.3343 51.2871 15.1981 50.9959C14.0618 50.7047 13.0623 50.0273 12.3708 49.0798C11.6471 48.1205 11.2667 46.9458 11.2907 45.7443C11.3148 44.5429 11.7418 43.3843 12.5033 42.4547C13.2407 41.5488 14.271 40.9287 15.4167 40.7011C16.5623 40.4735 17.7515 40.6527 18.7791 41.208C21.4773 42.6354 24.1153 44.1832 27.2472 45.9359C24.0912 47.6644 21.393 49.2665 18.5984 50.6758Z" fill="#01C7E2"/>
</svg>
