<svg width="307" height="65" viewBox="0 0 307 65" fill="none" xmlns="http://www.w3.org/2000/svg">
<path d="M105.632 43.848L105.608 48H84.248V13.536H105.608V17.688H89.384V28.608H102.44V32.616H89.384V43.848H105.632ZM131.679 43.704V48H111.951V13.536H117.063V43.704H131.679ZM158.038 43.848L158.014 48H136.654V13.536H158.014V17.688H141.79V28.608H154.846V32.616H141.79V43.848H158.038ZM192.773 13.536L178.757 48H174.173L160.157 13.536H164.237C164.685 13.536 165.045 13.648 165.317 13.872C165.605 14.096 165.821 14.384 165.965 14.736L175.277 38.16C175.501 38.736 175.717 39.368 175.925 40.056C176.149 40.744 176.349 41.464 176.525 42.216C176.685 41.464 176.861 40.744 177.053 40.056C177.245 39.368 177.453 38.736 177.677 38.16L186.965 14.736C187.077 14.416 187.277 14.136 187.565 13.896C187.869 13.656 188.237 13.536 188.669 13.536H192.773ZM212.763 35.16L207.651 21.792C207.283 20.88 206.915 19.728 206.547 18.336C206.371 19.024 206.187 19.664 205.995 20.256C205.819 20.848 205.643 21.376 205.467 21.84L200.379 35.16H212.763ZM222.867 48H218.931C218.483 48 218.115 47.888 217.827 47.664C217.539 47.44 217.331 47.152 217.203 46.8L214.155 38.808H198.963L195.915 46.8C195.803 47.104 195.595 47.384 195.291 47.64C194.987 47.88 194.619 48 194.187 48H190.251L203.979 13.536H209.139L222.867 48ZM247.291 17.808H236.347V48H231.259V17.808H220.267V13.536H247.291V17.808ZM267.185 35.16L262.073 21.792C261.705 20.88 261.337 19.728 260.969 18.336C260.793 19.024 260.609 19.664 260.417 20.256C260.241 20.848 260.065 21.376 259.889 21.84L254.801 35.16H267.185ZM277.289 48H273.353C272.905 48 272.537 47.888 272.249 47.664C271.961 47.44 271.753 47.152 271.625 46.8L268.577 38.808H253.385L250.337 46.8C250.225 47.104 250.017 47.384 249.713 47.64C249.409 47.88 249.041 48 248.609 48H244.673L258.401 13.536H263.561L277.289 48ZM292.032 31.272C293.328 31.272 294.464 31.104 295.44 30.768C296.432 30.432 297.256 29.96 297.912 29.352C298.584 28.728 299.088 27.992 299.424 27.144C299.76 26.28 299.928 25.328 299.928 24.288C299.928 22.192 299.272 20.544 297.96 19.344C296.664 18.144 294.688 17.544 292.032 17.544H286.704V31.272H292.032ZM292.032 13.536C294.24 13.536 296.16 13.792 297.792 14.304C299.424 14.816 300.776 15.544 301.848 16.488C302.92 17.416 303.712 18.544 304.224 19.872C304.752 21.2 305.016 22.672 305.016 24.288C305.016 25.904 304.736 27.392 304.176 28.752C303.616 30.096 302.792 31.256 301.704 32.232C300.616 33.208 299.256 33.968 297.624 34.512C296.008 35.04 294.144 35.304 292.032 35.304H286.704V48H281.592V13.536H292.032Z" fill="#01C7E2"/>
<path d="M51.954 6.0283C49.2459 3.34266 45.7576 1.58259 41.9883 1H41.8584L38.6102 1.03248H38.5452C35.0176 1.59118 32.0487 3.46867 28.9888 5.11229C28.6841 5.2982 28.3647 5.45898 28.0338 5.59303C28.3457 5.51507 26.5332 6.48955 26.2798 6.59999C26.0264 6.71043 25.6301 6.87284 25.3378 7.03525C23.2459 8.26309 21.1281 9.45195 19.0102 10.6408C18.8911 10.6978 18.7891 10.785 18.7144 10.8937C18.6396 11.0025 18.5947 11.129 18.5842 11.2605C18.5737 11.3921 18.5979 11.5241 18.6544 11.6434C18.7109 11.7626 18.7978 11.865 18.9063 11.9401C21.1151 13.2394 28.3262 16.6241 28.3847 16.6436C28.5249 16.6826 28.6732 16.6826 28.8134 16.6436C32.1916 14.7466 35.0371 13.0835 37.9475 11.5438C39.0561 10.9431 40.3399 10.7494 41.5764 10.9962C42.8128 11.243 43.9239 11.9148 44.7169 12.8951C45.3677 13.6794 45.7988 14.6222 45.9664 15.6275C46.134 16.6327 46.0319 17.6645 45.6707 18.6174C45.3094 19.5704 44.7019 20.4105 43.9101 21.0521C43.1183 21.6937 42.1704 22.1138 41.1633 22.2696C40.9888 22.2944 40.8132 22.3096 40.6371 22.315C39.799 22.354 40.2538 23.2245 40.9619 23.6143C42.5016 24.3939 43.8723 25.102 43.8593 27.2849C43.8463 29.4677 42.3456 30.0979 40.8579 30.8904C40.2083 31.2282 39.6171 31.618 38.9999 31.9818L38.857 32.0663C41.7317 32.3793 44.6363 31.8748 47.237 30.6106C49.8377 29.3465 52.0289 27.3741 53.5586 24.9201C56.7029 20.0478 57.502 12.7002 51.954 6.0283Z" fill="#01C7E2"/>
<path d="M15.0539 34.2946C15.762 33.9373 16.4182 33.4696 17.1003 33.0538C19.8548 31.4946 22.6223 29.9614 25.3574 28.3568C25.6302 28.2009 26.007 28.0969 26.2929 27.9215C26.5787 27.7461 28.3652 26.8431 28.0534 26.9081C28.3798 26.7734 28.6948 26.6126 28.9954 26.4273C32.0553 24.7837 35.0242 22.9062 38.5518 22.3475H38.6232H41.8715H42.0014C45.7661 22.9367 49.249 24.6986 51.954 27.3823V27.3823C57.5086 34.0477 56.7095 41.4018 53.5587 46.2742C49.0696 53.2254 40.4357 55.4797 32.8933 51.5298C27.5272 48.7169 22.304 45.631 17.0223 42.6686C16.3727 42.3048 15.7945 41.915 15.1578 41.5772C13.6701 40.7846 12.1759 40.1804 12.1565 37.9716C12.137 35.7628 13.5142 35.0742 15.0539 34.2946ZM38.162 43.1104C39.3067 43.6483 40.6029 43.7714 41.8285 43.4585C43.054 43.1456 44.1326 42.4162 44.8794 41.3953C45.6589 40.3601 46.0685 39.0932 46.0426 37.7975C46.0167 36.5019 45.5568 35.2524 44.7364 34.2491C43.9418 33.271 42.8304 32.6012 41.5943 32.3557C40.3583 32.1101 39.0752 32.3042 37.9671 32.9044C35.0501 34.4245 32.2437 36.0811 28.833 37.9781C32.2437 39.8621 35.1411 41.5707 38.162 43.1104Z" fill="#110239"/>
<path d="M40.9879 44.8774C40.2798 44.5201 39.6237 44.0523 38.9415 43.6366C36.187 42.0774 33.413 40.5442 30.6845 38.9721C30.4116 38.8096 30.0348 38.7057 29.749 38.5368C29.4631 38.3679 27.6701 37.4584 27.9819 37.5233C27.659 37.3782 27.3465 37.2111 27.0464 37.0231C23.9866 35.373 21.0177 33.502 17.4966 32.9368H17.4251L14.1769 32.8978H14.0404C10.2714 33.4852 6.78386 35.2472 4.07478 37.9326V37.9326C-1.47973 44.6045 -0.680659 51.9651 2.46365 56.831C6.97223 63.8017 15.5996 66.0625 23.1485 62.1061C28.5146 59.2996 33.7313 56.2138 39.0195 53.2644C39.6691 52.8941 40.2473 52.5043 40.884 52.1665C42.3717 51.3739 43.8659 50.7762 43.8789 48.5609C43.8919 46.3456 42.5211 45.6635 40.9879 44.8774ZM17.8799 53.6931C16.7329 54.2315 15.4343 54.3534 14.2072 54.0381C12.9801 53.7227 11.9012 52.9897 11.156 51.9651C10.3773 50.9291 9.96882 49.6618 9.99591 48.3662C10.023 47.0705 10.4841 45.8214 11.3054 44.8189C12.0981 43.8386 13.2083 43.1658 14.4442 42.9167C15.6801 42.6676 16.9642 42.8579 18.0748 43.4546C20.9852 44.9943 23.8307 46.6639 27.2088 48.5544C23.7982 50.4449 20.8942 52.1795 17.8799 53.6931Z" fill="#01C7E2"/>
</svg>
